<svg width="120" height="120" viewBox="0 0 120 120" fill="none" xmlns="http://www.w3.org/2000/svg">
<circle cx="61" cy="59" r="55" fill="#011012"/>
<path d="M49.7916 98.8076C50.2559 99.274 49.7916 110 49.7916 110H73.4715C73.4715 110 74.4001 96.4759 73.4715 91.8124C72.5429 87.1489 70.2213 85.2835 70.2213 85.2835C70.2213 85.2835 83.222 83.4181 86.9365 78.2882C90.651 73.1584 92.5082 70.8266 92.9725 62.4323C93.4368 54.038 87.8651 47.9755 87.8651 47.9755C87.8651 47.9755 90.1867 36.3168 86.9365 34.4514C83.6863 32.586 76.2573 39.5812 73.4715 39.5812C70.6856 39.5812 69.2927 37.7158 61.8637 37.7158C54.4347 37.7158 51.1846 39.5812 49.7916 39.5812C48.3987 39.5812 38.6482 32.1196 36.3266 34.4514C34.0051 36.7831 35.398 47.9755 35.398 47.9755C35.398 47.9755 30.2906 51.7063 30.2906 62.4323C30.2906 73.1584 33.1836 74.5574 36.3266 78.2882C39.4697 82.019 54.4347 85.2835 53.0418 85.2835C51.6489 85.2835 50.7203 90.4133 49.7916 91.8124C48.863 93.2114 47.0058 93.2114 44.22 93.2114H44.2199C41.434 93.2114 40.0411 92.2787 38.1839 90.8797C36.3266 89.4806 34.0051 84.8171 32.1478 83.4181C30.2906 82.019 25.1832 81.5527 26.1118 83.4181C27.0404 85.2835 28.8977 86.2162 31.2192 88.5479C33.5408 90.8797 33.5408 93.6778 34.4694 95.5432C35.398 97.4086 38.6482 98.8076 40.5054 98.8076C42.3627 98.8076 49.3273 98.3413 49.7916 98.8076Z" fill="#C2E9EF"/>
<circle cx="61" cy="59" r="53" stroke="#C2E9EF" stroke-width="4"/>
</svg>
