<svg width="120" height="120" viewBox="0 0 120 120" fill="none" xmlns="http://www.w3.org/2000/svg">
<circle cx="61" cy="59" r="55" fill="#011012"/>
<circle cx="61" cy="59" r="53" stroke="#C2E9EF" stroke-width="4"/>
<path d="M29.3893 87V46.0909H44.091V87H29.3893ZM36.7402 41.8295C34.7516 41.8295 33.047 41.1726 31.6266 39.8587C30.2061 38.5447 29.4959 36.9645 29.4959 35.1179C29.4959 33.2713 30.2061 31.6911 31.6266 30.3771C33.047 29.0632 34.7516 28.4062 36.7402 28.4062C38.7466 28.4062 40.4511 29.0632 41.8538 30.3771C43.2743 31.6911 43.9845 33.2713 43.9845 35.1179C43.9845 36.9645 43.2743 38.5447 41.8538 39.8587C40.4511 41.1726 38.7466 41.8295 36.7402 41.8295ZM66.2834 63.9886V87H51.5817V46.0909H65.5377V53.8679H65.9638C66.8516 51.2756 68.4141 49.2425 70.6513 47.7688C72.9063 46.2951 75.5341 45.5582 78.5348 45.5582C81.429 45.5582 83.9415 46.2241 86.0721 47.5558C88.2206 48.8697 89.8807 50.6808 91.0526 52.989C92.2422 55.2972 92.8282 57.9339 92.8104 60.8991V87H78.1087V63.9886C78.1265 61.9645 77.6116 60.3754 76.564 59.2212C75.5341 58.0671 74.0959 57.4901 72.2493 57.4901C71.0419 57.4901 69.9855 57.7564 69.0799 58.2891C68.1922 58.804 67.5086 59.5497 67.0292 60.5263C66.5498 61.4851 66.3012 62.6392 66.2834 63.9886Z" fill="#C2E9EF"/>
</svg>
