<svg width="150" height="110" viewBox="0 0 150 110" fill="none" xmlns="http://www.w3.org/2000/svg">
<g id="btn-pre" clip-path="url(#clip0_40_41)">
<rect id="background" width="150" height="110" rx="20" fill="#011012"/>
<path id="hidden-back" d="M52.7455 51.5448C49.105 53.3994 49.105 58.6006 52.7455 60.4552L113.23 91.2678C116.557 92.9625 120.5 90.546 120.5 86.8126L120.5 25.1874C120.5 21.4541 116.557 19.0376 113.23 20.7322L52.7455 51.5448Z" fill="#C2E9EF" fill-opacity="0.9"/>
<path id="hidden-front" d="M23.7455 51.5448C20.105 53.3994 20.105 58.6006 23.7455 60.4552L84.2304 91.2678C87.557 92.9625 91.5 90.546 91.5 86.8126L91.5 25.1874C91.5 21.4541 87.557 19.0376 84.2304 20.7322L23.7455 51.5448Z" fill="#AEE6EF" fill-opacity="0.9"/>
<path id="arrow-back" d="M52.7455 51.5448C49.105 53.3994 49.105 58.6006 52.7455 60.4552L113.23 91.2678C116.557 92.9625 120.5 90.5459 120.5 86.8126L120.5 25.1874C120.5 21.454 116.557 19.0375 113.23 20.7322L52.7455 51.5448Z" fill="#C2E9EF" fill-opacity="0.9"/>
<path id="arrow-front" d="M23.7455 51.5448C20.105 53.3994 20.105 58.6006 23.7455 60.4552L84.2304 91.2678C87.557 92.9625 91.5 90.5459 91.5 86.8126L91.5 25.1874C91.5 21.454 87.557 19.0375 84.2304 20.7322L23.7455 51.5448Z" fill="#AAE0E9" fill-opacity="0.9"/>
<rect id="outline" x="1" y="1" width="148" height="108" rx="19" stroke="#C2E9EF" stroke-width="2"/>
</g>
<defs>
<clipPath id="clip0_40_41">
<rect width="150" height="110" fill="white"/>
</clipPath>
</defs>
</svg>
