<svg width="150" height="110" viewBox="0 0 150 110" fill="none" xmlns="http://www.w3.org/2000/svg">
<g id="btn-nxt" clip-path="url(#clip0_35_23)">
<rect id="background" width="150" height="110" rx="20" fill="#011012"/>
<path id="hidden-back" d="M97.2545 50.5448C100.895 52.3994 100.895 57.6006 97.2545 59.4552L36.7696 90.2678C33.443 91.9625 29.5 89.546 29.5 85.8126L29.5 24.1874C29.5 20.4541 33.443 18.0376 36.7696 19.7322L97.2545 50.5448Z" fill="#C2E9EF" fill-opacity="0.9"/>
<path id="hidden-front" d="M126.254 50.5448C129.895 52.3994 129.895 57.6006 126.254 59.4552L65.7696 90.2678C62.443 91.9625 58.5 89.546 58.5 85.8126L58.5 24.1874C58.5 20.4541 62.443 18.0376 65.7696 19.7322L126.254 50.5448Z" fill="#AEE6EF" fill-opacity="0.9"/>
<path id="arrow-back" d="M97.2545 50.5448C100.895 52.3994 100.895 57.6006 97.2545 59.4552L36.7696 90.2678C33.443 91.9625 29.5 89.546 29.5 85.8126L29.5 24.1874C29.5 20.4541 33.443 18.0376 36.7696 19.7322L97.2545 50.5448Z" fill="#C2E9EF" fill-opacity="0.9"/>
<path id="arrow-front" d="M126.254 50.5448C129.895 52.3994 129.895 57.6006 126.254 59.4552L65.7696 90.2678C62.443 91.9625 58.5 89.546 58.5 85.8126L58.5 24.1874C58.5 20.4541 62.443 18.0376 65.7696 19.7322L126.254 50.5448Z" fill="#AAE0E9" fill-opacity="0.9"/>
<rect id="outline" x="1" y="1" width="148" height="108" rx="19" stroke="#C2E9EF" stroke-width="2"/>
</g>
<defs>
<clipPath id="clip0_35_23">
<rect width="150" height="110" fill="white"/>
</clipPath>
</defs>
</svg>
