<svg width="120" height="120" viewBox="0 0 120 120" fill="none" xmlns="http://www.w3.org/2000/svg">
<g id="cross">
<path id="cross1" fill-rule="evenodd" clip-rule="evenodd" d="M66 21.5C66 18.4624 63.5376 16 60.5 16V16C57.4624 16 55 18.4624 55 21.5V36C55 45.9411 46.9411 54 37 54H21.5C18.4624 54 16 56.4624 16 59.5V59.5C16 62.5376 18.4624 65 21.5 65H37C46.9411 65 55 73.0589 55 83V98.5C55 101.538 57.4624 104 60.5 104V104C63.5376 104 66 101.538 66 98.5V83C66 73.0589 74.0589 65 84 65H98.5C101.538 65 104 62.5376 104 59.5V59.5C104 56.4624 101.538 54 98.5 54H84C74.0589 54 66 45.9411 66 36V21.5Z" fill="#FFBE3D"/>
</g>
</svg>
