<svg width="120" height="120" viewBox="0 0 120 120" fill="none" xmlns="http://www.w3.org/2000/svg">
<g id="stars">
<path id="Star 1" d="M63.0956 12.9387L76.3676 38.0938C77.0187 39.3279 78.2055 40.1902 79.5804 40.4281L107.606 45.2771C110.379 45.7569 111.48 49.1471 109.519 51.1652L89.6961 71.561C88.7236 72.5617 88.2703 73.9568 88.4689 75.3379L92.5175 103.49C92.918 106.275 90.0341 108.371 87.5087 107.129L61.9856 94.5792C60.7335 93.9635 59.2665 93.9635 58.0144 94.5792L32.4913 107.129C29.9659 108.371 27.082 106.275 27.4825 103.49L31.5311 75.3379C31.7297 73.9568 31.2764 72.5617 30.3039 71.5611L10.4812 51.1652C8.51983 49.1471 9.62138 45.7569 12.3944 45.2771L40.4196 40.4281C41.7945 40.1902 42.9813 39.3279 43.6324 38.0938L56.9044 12.9387C58.2177 10.4497 61.7823 10.4497 63.0956 12.9387Z" fill="#FFBE3D" stroke="#C2E9EF"/>
</g>
</svg>
